<svg width="2308" height="2321" viewBox="0 0 2308 2321" fill="none" xmlns="http://www.w3.org/2000/svg">
<path fill-rule="evenodd" clip-rule="evenodd" d="M473.5 2102C720.647 2102 921 1901.65 921 1654.5C921 1522.38 602.153 1631.92 511.095 1550C431.823 1478.69 588.523 1207 473.5 1207C226.353 1207 26 1407.35 26 1654.5C26 1901.65 226.353 2102 473.5 2102Z" fill="#568AFF"/>
<path opacity="0.541829" fill-rule="evenodd" clip-rule="evenodd" d="M1065.47 513.085C1015.51 796.454 1204.72 1066.67 1488.08 1116.64C1639.57 1143.35 1578.44 755.63 1690.77 667.788C1788.56 591.315 2068.39 825.907 2091.64 694.026C2141.61 410.657 1952.4 140.436 1669.03 90.4707C1385.66 40.5051 1115.44 229.716 1065.47 513.085Z" fill="#568AFF"/>
<path opacity="0.6" fill-rule="evenodd" clip-rule="evenodd" d="M420.512 488.054C188.27 572.583 68.5246 829.378 153.054 1061.62C198.243 1185.78 460.396 973.791 573.979 1019.62C672.861 1059.52 618.534 1368.42 726.62 1329.08C958.863 1244.55 1078.61 987.755 994.079 755.512C909.55 523.27 652.755 403.525 420.512 488.054Z" fill="#568AFF"/>
<path fill-rule="evenodd" clip-rule="evenodd" d="M2207.38 1753.96C2262.52 1441.22 2053.7 1142.99 1740.96 1087.85C1573.77 1058.37 1641.24 1486.28 1517.27 1583.22C1409.34 1667.62 1100.51 1408.71 1074.85 1554.26C1019.7 1867 1228.53 2165.23 1541.26 2220.38C1854 2275.52 2152.23 2066.7 2207.38 1753.96Z" fill="#568AFF"/>
</svg>
