<svg version="1.2" xmlns="http://www.w3.org/2000/svg" viewBox="0 0 200 200" width="200" height="200">
	<title>Proyecto nuevo</title>
	<style>
		.s0 { fill: #ffffff } 
	</style>
	<path id="&lt;Compound Path&gt;" fill-rule="evenodd" class="s0" d="m151.1 118.3c0.2 7.5 0.3 15 0 22.5-0.8 22.5-19.1 33.4-34.3 34.2-6.4 0.4-26.3 0.5-31.9 0.4-19.5-0.5-33.5-12.5-35.4-31.8-1.2-11-1.9-22.2 1.1-33.2 4.6-16.3 16.7-25.7 33.7-25.7 10.8-0.1 21.6-0.1 32.4 0 19 0.2 33.8 14.6 34.4 33.6zm-31.6 7.4c-2.4-1.7-3.1-4.6-3.5-6.7 0.9-3.9-0.1-6.2-3.6-5.8-4 0.4-7-0.5-9.4-3.8-1.7-2.3-4-2.5-5.7 0-2.4 3.3-5.3 4.4-9.3 3.9-3.1-0.4-5.5 1.5-4.8 4.6 0.9 3.9-0.3 6.2-3.3 8.4-2.4 1.7-2.9 4.3 0 5.9 3.5 2 4.3 4.9 3.7 8.3-0.6 3.4 0.9 4.9 4 4.5 4.1-0.5 7.3 0.6 9.8 4.1 1.4 2 3.8 1.9 5 0.1 2.4-3.7 5.8-4.4 9.7-4.1 3.1 0.2 4.6-1 4.2-4.4-0.5-3.3 0.7-6.2 3.3-8.2 3.2-2.5 3.3-4.5-0.1-6.8z"/>
	<path id="&lt;Path&gt;" class="s0" d="m99.8 116.6c-6.4 0.2-12 5.7-12.1 11.8 0 6.6 5.8 12.4 12.4 12.4 6.8 0 12.8-5.9 12.7-12.3 0-6.3-6.3-12-13-11.9z"/>
	<g id="&lt;Group&gt;">
		<path id="&lt;Compound Path&gt;" fill-rule="evenodd" class="s0" d="m165.3 151.6c-5 23.3-24.8 39-48.5 39-14.1 0-28.4 1.3-42.4-0.8-21.7-3.2-40-23.8-40.7-45.6-0.3-10.7-1.3-21.5 0.5-31.9 4.2-23.6 18.4-38.1 42.4-43.4-13.2-5.7-18.2-13.8-15.9-24.9 2-9.3 9.7-15.6 19.2-15.6 4-0.1 8 0 12 0 4.8 0 3.9-9.8 3.1-12.7-0.8-2.8-0.2-5.4 2.4-7.1 2-1.3 4.2-1 6 0.4 2.5 1.9 2.6 4.8 1.4 7.5-1.2 2.8-0.4 12.1 3.2 11.9 3.8-0.2 7.7 0 11.5 0 10.5 0.1 18.6 6.8 20.4 16.9 1.7 9.2-4.2 19.1-13.5 22.5-1.1 0.3-2.2 0.6-3.8 1.1 22.6 4.4 37.6 17 42.7 39.1 3.3 14.3 3.1 29.2 0 43.6zm-54.3-103.2c0 2.6 2.1 4.7 4.8 4.7 2.6 0 4.7-2.1 4.7-4.7 0-2.7-2.1-4.8-4.7-4.8-2.7 0-4.8 2.1-4.8 4.8zm-31.9 0c0 2.6 2.1 4.7 4.7 4.7 2.6 0 4.8-2.1 4.8-4.7 0-2.7-2.2-4.8-4.8-4.8-2.6 0-4.7 2.1-4.7 4.8zm79.3 69.2c-1.2-20.6-15.2-37-33.9-39.4-8-1-35.8-0.5-41.4-0.5-22.5 0.1-39.6 16.1-40.9 38.7-0.5 9.2-0.6 18.4-0.1 27.5 0.9 18.8 15.3 35.2 34 37.6 15.4 1.9 31 1.7 46.3 0.1 20-2.1 33.3-16.5 35.6-36.5 1.1-9.2 1-18.4 0.4-27.5z"/>
	</g>
</svg>