<svg version="1.2" xmlns="http://www.w3.org/2000/svg" viewBox="0 0 818 449" width="818" height="449">
	<title>NOVTIQ white</title>
	<style>
		.s0 { fill: #202224 } 
	</style>
	<g id="Capa 1">
		<path id="&lt;Path&gt;" class="s0" d="m714.7 284c-4.5-2.2-9.1-4.1-13.7-6.1-2.9-1.2-4.2-3.3-4.1-6.6 0.1-9 0-18 0-27 0-1.4 0.7-3.2-1-4-1.4-0.7-2.4 0.7-3.5 1.4-7.8 5.2-16.5 6.2-25.4 4.2-14.6-3.2-24.6-17.8-22.6-32.2 2.4-17 15.6-27.8 33.3-26.9 15.1 0.7 27.4 12.9 27.9 28.1 0.2 8.8 0 17.6 0 26.4q0 0 0 0c0 8.9-0.1 17.7 0 26.5 0 1.4-0.6 3.3 0.9 4.1 1.6 0.9 2.7-0.8 3.9-1.5 24.7-16.5 34.9-47.5 24.8-75.8-9.8-27.7-36.7-44.4-66.8-41.3-34.8 3.5-58.5 33.3-57 67.1 1.5 31.8 27.7 58.7 60.3 60.2 4 0.2 7.9 0.6 11.8 1.8 13.8 4.4 19 15.4 21.1 28.3 0.8 5.4 0.3 11 0.2 16.5 0 11.3-1.2 9.6 9.9 9.7 4 0.1 8 0 12 0 10.5 0 9.9-0.1 11.7-10.3 3.9-21.3-8.3-35.3-23.7-42.6z"/>
		<path id="&lt;Path&gt;" class="s0" d="m210.6 197.4c-5.4-27.5-27.2-44.6-56.4-44.2-27.3 0.5-50.1 20.4-52.4 47.5-2.1 24.7-0.4 49.6-0.7 74.4 0 3.2 1.9 3.8 4.6 3.7 7.5-0.1 15-0.2 22.5 0.1 4.7 0.2 6.3-1.4 6.2-6.3-0.2-21.1-0.2-42.3 0-63.4 0-14.1 8.7-22.5 22.3-22.6 10.8-0.2 21.6 8.9 21.3 22.7-0.6 21.1 0 42.3-0.2 63.4-0.1 4.9 1.5 6.4 6.3 6.2 6.8-0.3 13.7-0.1 20.5-0.1 6.7 0 6.7 0 6.7-6.5 0-11.5-0.1-72-0.7-74.9z"/>
		<path id="&lt;Path&gt;" class="s0" d="m481.9 154.5c-9.3 0-18.7 0.1-28-0.1-3.4-0.1-5.1 1.2-6.2 4.4-4.2 12.4-23 65.3-28.4 80.6-0.9-2.5-19.4-54.5-28-79.5-1.4-4.2-3.5-5.7-7.9-5.6-8.8 0.4-17.6 0.3-26.4 0.1-3.8 0-5.2 0.7-3.5 4.9q23.1 57.6 45.9 115.5c1.1 2.9 2.7 4.1 5.9 4 9.1-0.1 18.3-0.1 27.4 0 2.9 0.1 4.6-0.8 5.7-3.6q23.2-58.2 46.6-116.3c1.4-3.6 0.2-4.4-3.1-4.4z"/>
		<path id="&lt;Path&gt;" class="s0" d="m549.8 245.5q-3 0.1-6-0.2c-8.5-0.9-14.7-6.9-14.9-15.3-0.3-12.3-0.1-24.7-0.2-37 0-3.5 1.7-4.6 4.9-4.6 5.2 0.1 10.4 0 15.5 0 3.6 0.1 5.1-1.3 5-5q-0.3-12 0.1-24c0.1-3.8-1.6-5-5.1-4.9-4.8 0.2-9.7-0.1-14.5 0.2-4.7 0.3-6.1-1.7-5.9-6.1 0.3-4.7-0.1-9.4 0-14 0.1-3.7-1.4-5-5-4.9-7.5 0.2-15 0.3-22.5 0-4.9-0.2-6.3 1.8-6.2 6.4 0.2 15.3-0.1 76.3 0.1 91.4 0.4 31.9 23.1 53.1 54.7 51.4 3.2-0.2 4.5-1.3 4.4-4.5q-0.2-12.2 0-24.5c0.1-3.2-1.2-4.5-4.4-4.4z"/>
		<path id="&lt;Path&gt;" class="s0" d="m594.4 154.5c-7.8 0.1-15.7 0.2-23.5-0.1-4.2-0.1-5.4 1.6-5.3 5.6 0.1 18.8 0.1 94.5 0 113.5-0.1 4 1.2 5.6 5.4 5.4 7.6-0.2 15.3-0.2 22.9 0 3.6 0.1 5.2-0.9 5.2-4.8-0.1-38.3-0.1-76.6 0-114.9 0-3.4-1.3-4.8-4.7-4.7z"/>
		<path id="&lt;Compound Path&gt;" fill-rule="evenodd" class="s0" d="m600.2 128c-0.1 10.4-8.6 18.8-18.8 18.7-10.6-0.1-19.1-8.5-19.1-19-0.1-10.4 8.8-19.4 19-19.2 10.3 0.3 19 9.2 18.9 19.5zm-9.4-0.3c0-5.7-4.1-9.8-9.6-9.9-5.6-0.1-10 4.1-10 9.6-0.1 5.7 4.5 10.3 10 10.2 5.7-0.1 9.7-4.1 9.6-9.9z"/>
		<path id="&lt;Compound Path&gt;" fill-rule="evenodd" class="s0" d="m342.1 205.3c0.2 7.5 0.3 15 0 22.5-0.8 22.5-19.1 33.4-34.3 34.2-6.4 0.4-26.3 0.5-31.9 0.4-19.5-0.5-33.5-12.5-35.4-31.8-1.2-11-1.9-22.2 1.1-33.2 4.6-16.3 16.7-25.7 33.7-25.7 10.8-0.1 21.6-0.1 32.4 0 19 0.2 33.8 14.6 34.4 33.6zm-31.6 7.4c-2.4-1.7-3.1-4.6-3.5-6.7 0.9-3.9-0.1-6.2-3.6-5.8-4 0.4-7-0.5-9.4-3.8-1.7-2.3-4-2.5-5.7 0-2.4 3.3-5.3 4.4-9.3 3.9-3.1-0.4-5.5 1.5-4.8 4.6 0.9 3.9-0.3 6.2-3.3 8.4-2.4 1.7-2.9 4.3 0 5.9 3.5 2 4.3 4.9 3.7 8.3-0.6 3.4 0.9 4.9 4 4.5 4.1-0.5 7.3 0.6 9.8 4.1 1.4 2 3.8 1.9 5 0.1 2.4-3.7 5.8-4.4 9.7-4.1 3.1 0.2 4.6-1 4.2-4.4-0.5-3.3 0.7-6.2 3.3-8.2 3.2-2.5 3.3-4.5-0.1-6.8z"/>
		<path id="&lt;Path&gt;" class="s0" d="m290.8 203.6c-6.4 0.2-12 5.7-12.1 11.8 0 6.6 5.8 12.4 12.4 12.4 6.8 0 12.8-5.9 12.7-12.3 0-6.3-6.3-12-13-11.9z"/>
		<g id="&lt;Group&gt;">
			<path id="&lt;Compound Path&gt;" fill-rule="evenodd" class="s0" d="m356.3 238.6c-5 23.3-24.8 39-48.5 39-14.1 0-28.4 1.3-42.4-0.8-21.7-3.2-40-23.8-40.7-45.6-0.3-10.7-1.3-21.5 0.5-31.9 4.2-23.6 18.4-38.1 42.4-43.4-13.2-5.7-18.2-13.8-15.9-24.9 2-9.3 9.7-15.6 19.2-15.6 4-0.1 8 0 12 0 4.8 0 3.9-9.8 3.1-12.7-0.8-2.8-0.2-5.4 2.4-7.1 2-1.3 4.2-1 6 0.4 2.5 1.9 2.6 4.8 1.4 7.5-1.2 2.8-0.4 12.1 3.2 11.9 3.8-0.2 7.7 0 11.5 0 10.5 0.1 18.6 6.8 20.4 16.9 1.7 9.2-4.2 19.1-13.5 22.5-1.1 0.3-2.2 0.6-3.8 1.1 22.6 4.4 37.6 17 42.7 39.1 3.3 14.3 3.1 29.2 0 43.6zm-54.3-103.2c0 2.6 2.1 4.7 4.8 4.7 2.6 0 4.7-2.1 4.7-4.7 0-2.7-2.1-4.8-4.7-4.8-2.7 0-4.8 2.1-4.8 4.8zm-31.9 0c0 2.6 2.1 4.7 4.7 4.7 2.6 0 4.8-2.1 4.8-4.7 0-2.7-2.2-4.8-4.8-4.8-2.6 0-4.7 2.1-4.7 4.8zm79.3 69.2c-1.2-20.6-15.2-37-33.9-39.4-8-1-35.8-0.5-41.4-0.5-22.5 0.1-39.6 16.1-40.9 38.7-0.5 9.2-0.6 18.4-0.1 27.5 0.9 18.8 15.3 35.2 34 37.6 15.4 1.9 31 1.7 46.3 0.1 20-2.1 33.3-16.5 35.6-36.5 1.1-9.2 1-18.4 0.4-27.5z"/>
		</g>
	</g>
</svg>